<svg xmlns="http://www.w3.org/2000/svg" width="512" height="512" viewBox="0 0 512 512">
  <defs>
    <linearGradient id="bgGrad" x1="0" y1="0" x2="1" y2="1">
      <stop offset="0%" stop-color="#161B2E"/>
      <stop offset="100%" stop-color="#0B0F1A"/>
    </linearGradient>
    <linearGradient id="shieldGrad" x1="0" y1="0" x2="0" y2="1">
      <stop offset="0%" stop-color="#FF4D6D"/>
      <stop offset="100%" stop-color="#FF2D55"/>
    </linearGradient>
    <filter id="glow">
      <feGaussianBlur stdDeviation="8" result="blur"/>
      <feMerge><feMergeNode in="blur"/><feMergeNode in="SourceGraphic"/></feMerge>
    </filter>
  </defs>
  <rect width="512" height="512" rx="112" fill="url(#bgGrad)"/>
  <g filter="url(#glow)">
    <path d="M256 68 L404 138 V264 C404 376 256 448 256 448 S108 376 108 264 V138 Z" fill="url(#shieldGrad)"/>
  </g>
  <path d="M256 330 C220 298 174 262 174 222 C174 196 192 180 210 180 C226 180 240 190 256 206 C272 190 286 180 302 180 C320 180 338 196 338 222 C338 262 292 298 256 330Z" fill="#F0F4FF"/>
</svg>
